<svg xmlns="http://www.w3.org/2000/svg" viewBox="0 0 125 125" fill="white">
    <path d="M81 88.8c.4.5.4 1.3-.1 1.7-.2.2-.5.3-.8.3H44.9c-.7 0-1.2-.5-1.2-1.2 0-.3.1-.6.3-.8l17.5-20.1c.5-.6 1.3-.6 1.9-.1l.1.1L81 88.8zm-4.1-11.1l-2.8-3.3h10.5c.9.1 1.7-.1 2.5-.4.5-.3 1-.7 1.2-1.2.4-.8.5-1.7.4-2.5V45.8c.1-.9-.1-1.7-.4-2.5-.3-.5-.7-1-1.2-1.2-.8-.4-1.7-.5-2.5-.4h-44c-.9-.1-1.7.1-2.5.4-.5.3-1 .7-1.2 1.2-.4.8-.5 1.7-.4 2.5v24.4c-.1.9.1 1.7.4 2.5.3.5.7 1 1.2 1.2.8.4 1.7.5 2.5.4h10.5l-2.8 3.3h-6.7c-3 0-4-.3-5-.9-1.1-.6-1.9-1.4-2.5-2.5-.6-1.1-.9-2.1-.9-5V46.7c0-3 .3-4 .9-5.1.6-1.1 1.4-1.9 2.5-2.5 1.1-.6 2.1-.9 5-.9h42.2c3 0 4 .3 5.1.9 1.1.6 1.9 1.4 2.5 2.5.6 1.1.9 2.1.9 5.1v22.5c0 3-.3 4-.9 5-.6 1.1-1.4 1.9-2.5 2.5-1.1.6-2.1.9-5.1.9l-6.9.1z"/>
</svg>
