<svg xmlns="http://www.w3.org/2000/svg" viewBox="0 0 125 125" fill="white">
    <path d="M43.5 84.1l1.3-1.5c.3-.3.3-.8 0-1.1-10.5-9.7-11.2-26.2-1.4-36.7s26.2-11.2 36.7-1.4 11.2 26.2 1.4 36.7c-.5.5-.9 1-1.4 1.4-.3.3-.3.8 0 1.1l1.3 1.5c.3.3.8.3 1.1.1 12-11.1 12.7-29.7 1.7-41.7-11.1-12-29.7-12.7-41.7-1.7s-12.7 29.7-1.7 41.7c.5.6 1.1 1.1 1.7 1.7.3.2.7.2 1-.1z"/>
    <path d="M44.8 62.5c0-9.7 7.9-17.6 17.6-17.6S80 52.9 80 62.6c0 4.8-2 9.5-5.5 12.8-.3.3-.3.8 0 1.1l1.3 1.5c.3.3.8.4 1.1.1 8.5-8 8.9-21.3 1-29.8s-21.3-8.9-29.8-1-9 21.2-1.1 29.7c.3.3.6.7 1 1 .3.3.8.3 1.1 0l1.3-1.5c.3-.3.3-.8 0-1.1-3.5-3.3-5.6-8-5.6-12.9z"/>
    <path d="M53.2 62.5c0-5.1 4.1-9.2 9.2-9.2s9.2 4.1 9.2 9.2c0 2.5-1 4.8-2.8 6.6-.3.3-.3.8 0 1.1l1.3 1.5c.3.3.8.3 1.1 0 5-4.9 5.2-12.9.3-18s-12.9-5.2-18-.3-5.2 12.9-.3 18l.3.3c.3.3.8.3 1.1 0l1.3-1.5c.3-.3.3-.8 0-1.1-1.7-1.7-2.7-4.1-2.7-6.6z"/>
	<path d="M80.9 89.1L63.5 69.3c-.5-.6-1.3-.6-1.9-.1l-.1.1-17.6 19.8c-.4.5-.4 1.2.1 1.7.2.2.5.3.7.3H80c.6 0 1.2-.5 1.2-1.2 0-.3-.1-.6-.3-.8z"/>
</svg>
